<svg xmlns="http://www.w3.org/2000/svg" width="32" height="32"><path d="M28.09 0A3.911 3.911 0 0132 3.91v24.18A3.912 3.912 0 0128.09 32H3.91A3.912 3.912 0 010 28.09V3.91A3.911 3.911 0 013.91 0h24.18zM16 5.062c-2.97 0-3.343.013-4.51.066a8.027 8.027 0 00-2.655.508 5.593 5.593 0 00-3.2 3.2 8.03 8.03 0 00-.508 2.655c-.053 1.167-.066 1.539-.066 4.51s.013 3.343.066 4.51a8.03 8.03 0 00.508 2.655 5.593 5.593 0 003.2 3.2 8.029 8.029 0 002.655.508c1.167.053 1.539.066 4.51.066s3.343-.013 4.51-.066a8.029 8.029 0 002.655-.508 5.593 5.593 0 003.2-3.2 8.029 8.029 0 00.508-2.655c.053-1.167.066-1.539.066-4.51s-.013-3.343-.066-4.51a8.029 8.029 0 00-.508-2.655 5.593 5.593 0 00-3.2-3.2 8.027 8.027 0 00-2.655-.508c-1.167-.053-1.539-.066-4.51-.066zm0 1.971c2.92 0 3.266.011 4.42.064a6.056 6.056 0 012.031.377 3.622 3.622 0 012.076 2.076 6.052 6.052 0 01.373 2.03c.053 1.153.064 1.5.064 4.42s-.011 3.266-.064 4.42a6.053 6.053 0 01-.377 2.031 3.622 3.622 0 01-2.076 2.076 6.053 6.053 0 01-2.031.377c-1.153.053-1.5.064-4.42.064s-3.267-.011-4.42-.064a6.053 6.053 0 01-2.031-.377 3.622 3.622 0 01-2.076-2.076A6.054 6.054 0 017.1 20.42c-.053-1.153-.064-1.5-.064-4.42s.011-3.266.064-4.42a6.054 6.054 0 01.377-2.031 3.622 3.622 0 012.072-2.075A6.056 6.056 0 0111.58 7.1c1.153-.053 1.5-.064 4.42-.064zm0 3.35A5.617 5.617 0 1021.617 16 5.617 5.617 0 0016 10.383zm0 9.262A3.646 3.646 0 1119.646 16 3.646 3.646 0 0116 19.646zm7.151-9.484a1.313 1.313 0 11-1.313-1.312 1.312 1.312 0 011.313 1.312z" fill="#fff" fill-rule="evenodd"/></svg>