<svg xmlns="http://www.w3.org/2000/svg" width="32" height="32"><path d="M28.09 0A3.911 3.911 0 0132 3.91v24.18A3.912 3.912 0 0128.09 32H3.91A3.912 3.912 0 010 28.09V3.91A3.911 3.911 0 013.91 0h24.18zM12.22 26.534a13.053 13.053 0 0013.142-13.142c0-.2 0-.4-.01-.594a9.462 9.462 0 002.309-2.398 9.374 9.374 0 01-2.653.728 4.616 4.616 0 002.031-2.557 9.352 9.352 0 01-2.931 1.121 4.621 4.621 0 00-7.988 3.161 4.234 4.234 0 00.125 1.054 13.1 13.1 0 01-9.523-4.825 4.617 4.617 0 001.437 6.159 4.537 4.537 0 01-2.088-.575v.057a4.624 4.624 0 003.707 4.531 4.6 4.6 0 01-1.217.163 4.407 4.407 0 01-.872-.086A4.612 4.612 0 0012 22.54a9.284 9.284 0 01-5.738 1.973 8.391 8.391 0 01-1.1-.067 12.868 12.868 0 007.058 2.088z" fill="#fff" fill-rule="evenodd"/></svg>